{"title":"The Other Woman 2009 BRRip XviD Ac3 Feel-Free","uid":6340354,"size":1041186939,"categoryP":"video","categoryS":"movies","magnet":"?xt=urn:btih:f68eb486e5e9c237514cd47c052827e223e1f03c&amp;dn=The+Other+Woman+2009+BRRip+XviD+Ac3+Feel-Free&amp;tr=udp%3A%2F%2Ftracker.openbittorrent.com%3A80&amp;tr=udp%3A%2F%2Fopen.demonii.com%3A1337&amp;tr=udp%3A%2F%2Ftracker.coppersurfer.tk%3A6969&amp;tr=udp%3A%2F%2Fexodus.desync.com%3A6969","seeders":0,"leechers":1,"uploader":"qwersd","files":-1,"time":1303636756,"description":"Genre:Comedy | Drama\nLanguage:English\nIMDb:http://www.imdb.com/title/tt1032825/\nSource:BluRay.720p.DTS.x264-CHD\n\n\nFormat : AVI\nFormat/Info : Audio Video Interleave\nFile size : 991 MiB\nDuration : 1h 42mn\nOverall bit rate : 1 353 Kbps\n\n\nVideo\nID : 0\nFormat : MPEG-4 Visual\nFormat profile : Advanced Simple@L5\nFormat settings, BVOP : Yes\nFormat settings, QPel : No\nFormat settings, GMC : No warppoints\nFormat settings, Matrix : Default (H.263)\nMuxing mode : Packed bitstream\nCodec ID : XVID\nCodec ID/Hint : XviD\nDuration : 1h 42mn\nBit rate : 959 Kbps\nWidth : 720 pixels\nHeight : 304 pixels\nDisplay aspect ratio : 2.35:1\nFrame rate : 23.976 fps\nColor space : YUV\nChroma subsampling : 4:2:0\nBit depth : 8 bits\nScan type : Progressive\nBits/(Pixel*Frame) : 0.183\nStream size : 703 MiB (71%)\nWriting library : XviD 1.2.1 (UTC 2008-12-04)\n\nAudio\nID : 1\nFormat : AC-3\nFormat/Info : Audio Coding 3\nMode extension : CM (complete main)\nCodec ID : 2000\nDuration : 1h 42mn\nBit rate mode : Constant\nBit rate : 384 Kbps\nChannel(s) : 6 channels\nChannel positions : Front: L C R, Side: L R, LFE\nSampling rate : 48.0 KHz\nBit depth : 16 bits\nStream size : 281 MiB (28%)\nAlignment : Split accross interleaves\nInterleave, duration : 42 ms (1.00 video frame)\nInterleave, preload duration : 500 ms\n\n\n\nPlot:\nA comedy/drama that details the story of a woman's difficult relationship with her stepson.","torrent":{"xt":"urn:btih:f68eb486e5e9c237514cd47c052827e223e1f03c","amp;dn":"The+Other+Woman+2009+BRRip+XviD+Ac3+Feel-Free","amp;tr":["udp%3A%2F%2Ftracker.openbittorrent.com%3A80","udp%3A%2F%2Fopen.demonii.com%3A1337","udp%3A%2F%2Ftracker.coppersurfer.tk%3A6969","udp%3A%2F%2Fexodus.desync.com%3A6969"],"infoHash":"f68eb486e5e9c237514cd47c052827e223e1f03c","infoHashBuffer":{"type":"Buffer","data":[246,142,180,134,229,233,194,55,81,76,212,124,5,40,39,226,35,225,240,60]},"announce":[],"urlList":[]}}